<?xml version="1.0" encoding="UTF-8"?>
<svg id="Capa_2" data-name="Capa 2" xmlns="http://www.w3.org/2000/svg" viewBox="0 0 549.56 95.39">
  <defs>
    <style>
      .cls-1 {
        fill: #1d1d1b;
      }
    </style>
  </defs>
  <g id="Capa_1-2" data-name="Capa 1">
    <g>
      <polygon class="cls-1" points="124.13 11.11 166.07 59.51 171.59 59.51 171.59 .78 165.3 .78 165.3 49.17 123.36 .78 117.85 .78 117.85 59.51 124.13 59.51 124.13 11.11"/>
      <polygon class="cls-1" points="192.52 32.73 218.01 32.73 218.01 27.04 192.52 27.04 192.52 6.46 218.79 6.46 218.79 .78 186.06 .78 186.06 59.51 219.47 59.51 219.47 53.83 192.52 53.83 192.52 32.73"/>
      <polygon class="cls-1" points="305.86 .78 288.03 45.39 270.12 .78 265.38 .78 247.47 45.39 229.55 .78 223.09 .78 246.61 60.11 248.24 60.11 267.7 11.28 287.17 60.11 288.72 60.11 312.31 .78 305.86 .78"/>
      <path class="cls-1" d="M372,44.18c0-8.7-4.13-12.06-15.59-17.74-5.17-2.58-11.11-5.6-11.11-11.54,0-2.15,1.64-9.04,10.94-9.04,5.94,0,10.68,3.36,13.35,5.34V3.88c-2.33-1.38-6.72-3.88-13.26-3.88-9.82,0-17.4,6.37-17.4,15.59,0,6.54,3.62,11.45,13.52,16.1,12.06,5.68,13.18,9.21,13.18,12.92s-2.67,9.82-10.94,9.82c-6.54,0-12.14-4.31-15.24-7.41v7.92c4.56,3.19,9.9,5.34,15.42,5.34,7.66,0,17.14-4.99,17.14-16.1Z"/>
      <polygon class="cls-1" points="436.68 59.51 436.68 .78 430.48 .78 409.64 26.53 388.71 .78 382.51 .78 382.51 59.51 388.97 59.51 388.97 10.59 409.29 35.65 409.98 35.65 430.22 10.59 430.22 59.51 436.68 59.51"/>
      <rect class="cls-1" x="451.33" y=".78" width="6.46" height="58.73"/>
      <polygon class="cls-1" points="506.7 53.83 478.97 53.83 478.97 .78 472.51 .78 472.51 59.51 506.7 59.51 506.7 53.83"/>
      <polygon class="cls-1" points="548.13 53.83 521.17 53.83 521.17 32.73 546.67 32.73 546.67 27.04 521.17 27.04 521.17 6.46 547.44 6.46 547.44 .78 514.71 .78 514.71 59.51 548.13 59.51 548.13 53.83"/>
      <polygon class="cls-1" points="118.75 73.31 117.15 73.31 117.15 95.23 131.37 95.23 131.37 93.79 118.75 93.79 118.75 73.31"/>
      <path class="cls-1" d="M145.65,73.31l-10.09,21.92h1.72l2.8-6.17h12.72l2.81,6.17h1.72l-10.08-21.92h-1.6ZM140.69,87.71l5.74-12.65,5.76,12.65h-11.49Z"/>
      <path class="cls-1" d="M179.66,84.4c-.49-.2-1.03-.35-1.61-.46.18-.06.36-.11.53-.18.99-.41,1.77-1.02,2.33-1.83.56-.81.85-1.82.85-3.01,0-1.82-.67-3.21-2-4.17-1.34-.96-3.18-1.44-5.54-1.44h-9.14v21.92h9.77c2.71,0,4.74-.51,6.07-1.52s2.01-2.44,2.01-4.28c0-1.25-.28-2.3-.83-3.13-.55-.83-1.36-1.47-2.43-1.91ZM174.15,74.69c1.9,0,3.37.37,4.42,1.1,1.04.73,1.57,1.82,1.57,3.26s-.52,2.56-1.57,3.29c-1.04.73-2.52,1.1-4.42,1.1h-7.49v-8.74h7.49ZM179.66,92.77c-1.11.72-2.71,1.08-4.82,1.08h-8.18v-9.05h8.18c2.11,0,3.71.36,4.82,1.08,1.11.72,1.66,1.86,1.66,3.43s-.55,2.74-1.66,3.46Z"/>
      <path class="cls-1" d="M209.82,76.32c-1.02-1-2.23-1.78-3.62-2.33-1.39-.55-2.9-.83-4.53-.83s-3.14.28-4.53.83c-1.39.55-2.6,1.34-3.63,2.35-1.03,1.01-1.83,2.19-2.39,3.54-.56,1.35-.85,2.81-.85,4.4s.28,3.05.85,4.4c.56,1.35,1.36,2.53,2.39,3.54,1.04,1.01,2.24,1.8,3.63,2.35,1.39.55,2.9.83,4.53.83s3.14-.28,4.53-.83c1.39-.55,2.59-1.33,3.62-2.33,1.02-1,1.82-2.18,2.39-3.52s.86-2.82.86-4.43-.29-3.08-.86-4.43-1.37-2.52-2.39-3.52ZM210.71,88.09c-.49,1.17-1.18,2.19-2.05,3.07s-1.91,1.56-3.1,2.04-2.48.72-3.88.72-2.7-.24-3.88-.72-2.23-1.16-3.12-2.04c-.89-.88-1.58-1.9-2.07-3.07-.49-1.17-.74-2.44-.74-3.82s.25-2.68.74-3.84,1.18-2.18,2.07-3.05c.89-.88,1.93-1.55,3.12-2.04,1.19-.48,2.48-.72,3.88-.72s2.69.24,3.88.72c1.19.48,2.22,1.16,3.1,2.04s1.56,1.89,2.05,3.05c.49,1.16.74,2.44.74,3.84s-.25,2.65-.74,3.82Z"/>
      <path class="cls-1" d="M234.97,87.17c1.32-.59,2.33-1.44,3.04-2.54.71-1.1,1.06-2.41,1.06-3.93,0-2.34-.78-4.16-2.35-5.45-1.57-1.29-3.73-1.94-6.48-1.94h-7.86v21.92h1.6v-7.17h6.26c.75,0,1.44-.06,2.11-.16l5.25,7.33h1.82l-5.5-7.67c.37-.11.72-.24,1.05-.39ZM223.98,86.65v-11.9h6.26c2.36,0,4.15.52,5.37,1.55,1.22,1.03,1.83,2.5,1.83,4.4s-.61,3.34-1.83,4.38c-1.22,1.04-3.01,1.57-5.37,1.57h-6.26Z"/>
      <path class="cls-1" d="M255.11,73.31l-10.08,21.92h1.72l2.8-6.17h12.71l2.81,6.17h1.72l-10.08-21.92h-1.6ZM250.15,87.71l5.74-12.65,5.75,12.65h-11.49Z"/>
      <polygon class="cls-1" points="269.73 74.75 277.62 74.75 277.62 95.23 279.22 95.23 279.22 74.75 287.11 74.75 287.11 73.31 269.73 73.31 269.73 74.75"/>
      <path class="cls-1" d="M311.95,76.32c-1.02-1-2.23-1.78-3.62-2.33-1.39-.55-2.9-.83-4.53-.83s-3.14.28-4.53.83c-1.39.55-2.6,1.34-3.63,2.35-1.03,1.01-1.83,2.19-2.39,3.54-.56,1.35-.85,2.81-.85,4.4s.28,3.05.85,4.4c.56,1.35,1.36,2.53,2.39,3.54,1.04,1.01,2.24,1.8,3.63,2.35,1.39.55,2.9.83,4.53.83s3.14-.28,4.53-.83c1.39-.55,2.59-1.33,3.62-2.33,1.02-1,1.82-2.18,2.39-3.52s.86-2.82.86-4.43-.29-3.08-.86-4.43-1.37-2.52-2.39-3.52ZM312.84,88.09c-.49,1.17-1.18,2.19-2.05,3.07s-1.91,1.56-3.1,2.04-2.48.72-3.88.72-2.7-.24-3.88-.72-2.23-1.16-3.12-2.04c-.89-.88-1.58-1.9-2.07-3.07-.49-1.17-.74-2.44-.74-3.82s.25-2.68.74-3.84,1.18-2.18,2.07-3.05c.89-.88,1.93-1.55,3.12-2.04,1.19-.48,2.48-.72,3.88-.72s2.69.24,3.88.72c1.19.48,2.22,1.16,3.1,2.04s1.56,1.89,2.05,3.05c.49,1.16.74,2.44.74,3.84s-.25,2.65-.74,3.82Z"/>
      <path class="cls-1" d="M337.1,87.17c1.32-.59,2.33-1.44,3.04-2.54.71-1.1,1.06-2.41,1.06-3.93,0-2.34-.78-4.16-2.35-5.45-1.57-1.29-3.73-1.94-6.48-1.94h-7.86v21.92h1.6v-7.17h6.26c.75,0,1.44-.06,2.11-.16l5.25,7.33h1.82l-5.5-7.67c.37-.11.72-.24,1.05-.39ZM326.11,86.65v-11.9h6.26c2.36,0,4.15.52,5.37,1.55,1.22,1.03,1.83,2.5,1.83,4.4s-.61,3.34-1.83,4.38c-1.22,1.04-3.01,1.57-5.37,1.57h-6.26Z"/>
      <rect class="cls-1" x="350.81" y="73.31" width="1.6" height="21.92"/>
      <path class="cls-1" d="M381.26,76.32c-1.02-1-2.23-1.78-3.62-2.33-1.39-.55-2.9-.83-4.53-.83s-3.14.28-4.53.83c-1.39.55-2.6,1.34-3.63,2.35-1.03,1.01-1.83,2.19-2.39,3.54-.56,1.35-.85,2.81-.85,4.4s.28,3.05.85,4.4c.56,1.35,1.36,2.53,2.39,3.54,1.04,1.01,2.24,1.8,3.63,2.35,1.39.55,2.9.83,4.53.83s3.14-.28,4.53-.83c1.39-.55,2.59-1.33,3.62-2.33,1.02-1,1.82-2.18,2.39-3.52s.86-2.82.86-4.43-.29-3.08-.86-4.43-1.37-2.52-2.39-3.52ZM382.15,88.09c-.49,1.17-1.18,2.19-2.05,3.07s-1.91,1.56-3.1,2.04-2.48.72-3.88.72-2.7-.24-3.88-.72-2.23-1.16-3.12-2.04c-.89-.88-1.58-1.9-2.07-3.07-.49-1.17-.74-2.44-.74-3.82s.25-2.68.74-3.84,1.18-2.18,2.07-3.05c.89-.88,1.93-1.55,3.12-2.04,1.19-.48,2.48-.72,3.88-.72s2.69.24,3.88.72c1.19.48,2.22,1.16,3.1,2.04s1.56,1.89,2.05,3.05c.49,1.16.74,2.44.74,3.84s-.25,2.65-.74,3.82Z"/>
      <path class="cls-1" d="M420.41,74.72c-1.75-.94-3.79-1.41-6.11-1.41h-8.68v21.92h8.68c2.32,0,4.35-.47,6.11-1.41s3.12-2.23,4.09-3.88c.97-1.65,1.46-3.54,1.46-5.67s-.49-4.02-1.46-5.67-2.33-2.94-4.09-3.88ZM423.1,89.2c-.84,1.43-2.02,2.55-3.54,3.37-1.53.81-3.32,1.22-5.39,1.22h-6.95v-19.04h6.95c2.07,0,3.86.41,5.39,1.22,1.52.81,2.7,1.94,3.54,3.37.83,1.43,1.25,3.08,1.25,4.93s-.42,3.5-1.25,4.93Z"/>
      <polygon class="cls-1" points="436.85 84.8 448.53 84.8 448.53 83.39 436.85 83.39 436.85 74.75 449.91 74.75 449.91 73.31 435.25 73.31 435.25 95.23 450.38 95.23 450.38 93.79 436.85 93.79 436.85 84.8"/>
      <polygon class="cls-1" points="476.21 92.34 461.31 73.31 459.96 73.31 459.96 95.23 461.56 95.23 461.56 76.2 476.5 95.23 477.81 95.23 477.81 73.31 476.21 73.31 476.21 92.34"/>
      <polygon class="cls-1" points="485.52 74.75 493.41 74.75 493.41 95.23 495.01 95.23 495.01 74.75 502.9 74.75 502.9 73.31 485.52 73.31 485.52 74.75"/>
      <path class="cls-1" d="M515.93,73.31l-10.08,21.92h1.72l2.8-6.17h12.71l2.81,6.17h1.72l-10.08-21.92h-1.6ZM510.97,87.71l5.74-12.65,5.75,12.65h-11.49Z"/>
      <polygon class="cls-1" points="536.94 93.79 536.94 73.31 535.34 73.31 535.34 95.23 549.56 95.23 549.56 93.79 536.94 93.79"/>
      <path class="cls-1" d="M93.39,47.13c.09-.34.13-.68.13-1.01l-.07-36.63c0-2.33-.91-4.52-2.56-6.17s-3.82-2.53-6.17-2.55l-36.63.07c-.48,0-.95.09-1.4.27-.42-.17-.89-.26-1.39-.26l-24.43.04C9.34.92-.03,10.33,0,21.86l.04,24.43c0,.49.09.95.26,1.38-.17.42-.26.89-.26,1.37l.07,36.49c.01,2.36.94,4.59,2.62,6.26,1.66,1.66,3.88,2.58,6.27,2.58l36.49-.07c.36,0,.71-.05,1.03-.14.28.1.58.14.88.14l25.3-.04c11.54-.03,20.9-9.43,20.88-20.96l-.04-25.3c0-.3-.05-.6-.15-.87ZM45.25,25.67l3.79-19.91,35.69-.07c1.01,0,1.96.4,2.68,1.12.73.72,1.12,1.65,1.12,2.68l.07,35.21-36-7.92c-5.1-1.12-8.32-6-7.35-11.12ZM46.88,39.68c-1.09.49-2.17,1.09-3.23,1.79-.76.51-1.48,1.06-2.15,1.65.54-1.32.96-2.72,1.23-4.17l.49-2.57c1.02,1.31,2.27,2.43,3.67,3.3ZM4.92,21.84c-.01-8.82,7.15-16.02,15.96-16.03l23.08-.04-6.06,32.26c-.88,4.73-3.8,8.76-8.02,11.08-4.21,2.32-9.19,2.62-13.65.82l-11.27-4.51-.04-23.58ZM35.9,50.88c-.59,1.42-1.03,2.92-1.31,4.48-.16.91-.26,1.79-.3,2.67-1.52-1.17-3.18-2.12-4.94-2.82l-.63-.25c1.21-.4,2.4-.92,3.54-1.54,1.3-.72,2.52-1.57,3.65-2.54ZM8.98,89.46c-1.06,0-2.05-.41-2.79-1.15-.75-.75-1.16-1.74-1.16-2.79l-.05-34.74,22.53,8.99c3.94,1.57,7.14,4.7,8.78,8.6.13.29.25.6.36.91l7.17,20.11-34.84.07ZM72.68,89.35l-23.85.04-7.94-22.77-.83-2.35c-.9-2.56-1.13-5.34-.65-8.05.78-4.39,3.26-8.19,6.97-10.68,2.69-1.81,5.81-2.76,9.02-2.76.9,0,1.7.07,2.47.2l30.73,6.74.04,23.57c.01,8.82-7.15,16.02-15.97,16.04Z"/>
    </g>
  </g>
</svg>