<?xml version="1.0" encoding="UTF-8"?>
<svg id="Layer_2" data-name="Layer 2" xmlns="http://www.w3.org/2000/svg" xmlns:xlink="http://www.w3.org/1999/xlink" viewBox="0 0 553.68 553.68">
  <defs>
    <style>
      .cls-1 {
        fill: #fff;
        filter: url(#outer-glow-1);
        stroke-width: 0px;
      }
    </style>
    <filter id="outer-glow-1" filterUnits="userSpaceOnUse">
      <feOffset dx="0" dy="0"/>
      <feGaussianBlur result="blur" stdDeviation="17.01"/>
      <feFlood flood-color="#fff" flood-opacity=".67"/>
      <feComposite in2="blur" operator="in"/>
      <feComposite in="SourceGraphic"/>
    </filter>
  </defs>
  <g id="Capa_1" data-name="Capa 1">
    <path class="cls-1" d="M501.31,274.53c.44-1.66.65-3.26.65-4.89l-.33-176.58c0-11.21-4.39-21.77-12.36-29.74-7.85-7.85-18.41-12.22-29.74-12.29l-176.58.33c-2.31,0-4.57.44-6.73,1.31-2.02-.81-4.3-1.24-6.69-1.24l-117.77.2c-55.63.13-100.78,45.46-100.64,101.05l.2,117.76c0,2.34.42,4.58,1.24,6.66-.81,2.02-1.24,4.29-1.24,6.62l.33,175.93c.07,11.4,4.55,22.12,12.62,30.2,8.01,8.01,18.72,12.42,30.21,12.42l175.91-.33c1.73,0,3.43-.24,4.97-.69,1.36.46,2.78.69,4.25.69l121.98-.2c55.63-.14,100.78-45.47,100.64-101.05l-.2-121.97c0-1.44-.25-2.88-.72-4.2ZM478.52,400.7c.06,42.51-34.48,77.21-77.01,77.34l-114.99.2-38.25-109.75-3.98-11.33c-4.34-12.32-5.42-25.73-3.13-38.79,3.78-21.18,15.71-39.46,33.6-51.47,12.96-8.71,28-13.31,43.51-13.31,4.34,0,8.19.32,11.9.98l148.16,32.51.2,113.62ZM217.84,314.2c-.76,4.41-1.24,8.65-1.45,12.87-7.34-5.64-15.34-10.21-23.84-13.6l-3.05-1.2c5.86-1.95,11.58-4.44,17.08-7.42,6.28-3.46,12.17-7.57,17.59-12.26-2.85,6.83-4.97,14.06-6.33,21.62ZM277.13,238.61c-5.25,2.35-10.47,5.24-15.57,8.62-3.69,2.47-7.14,5.11-10.39,7.96,2.62-6.37,4.61-13.1,5.94-20.1l2.35-12.4c4.92,6.3,10.93,11.72,17.67,15.93ZM195.13,284.06c-20.31,11.19-44.29,12.64-65.79,3.98l-54.33-21.73-.2-113.69c-.06-42.54,34.45-77.21,76.94-77.27l111.28-.19-29.23,155.51c-4.23,22.79-18.32,42.25-38.67,53.4ZM183.72,335.45c18.99,7.58,34.41,22.67,42.34,41.45.64,1.42,1.22,2.9,1.75,4.4l34.57,96.95-167.97.33c-5.11,0-9.89-1.97-13.45-5.54-3.61-3.61-5.6-8.39-5.6-13.46l-.26-167.46,108.63,43.32ZM478.25,262.82l-173.55-38.16c-24.56-5.39-40.13-28.93-35.44-53.61l18.28-95.98,172.06-.33c4.85,0,9.44,1.92,12.93,5.41,3.52,3.47,5.39,7.93,5.39,12.91l.33,169.75Z"/>
  </g>
</svg>