<?xml version="1.0" encoding="UTF-8"?>
<svg id="Capa_2" data-name="Capa 2" xmlns="http://www.w3.org/2000/svg" viewBox="0 0 1920 271.19">
  <defs>
    <style>
      .cls-1 {
        fill: #fff;
      }
    </style>
  </defs>
  <g id="Capa_1-2" data-name="Capa 1">
    <g>
      <path class="cls-1" d="M241.75,267.7h-24.79L28.28,49.98v217.72H0V3.49h24.79l188.67,217.72V3.49h28.28v264.21Z"/>
      <path class="cls-1" d="M452.11,29.06h-118.16v92.59h114.67v25.57h-114.67v94.92h121.26v25.57h-150.32V3.49h147.22v25.57Z"/>
      <path class="cls-1" d="M764.75,270.42h-6.97l-87.56-219.67-87.55,219.67h-7.36L469.54,3.49h29.06l80.58,200.68L659.76,3.49h21.3l80.58,200.68L841.85,3.49h29.06l-106.15,266.93Z"/>
      <path class="cls-1" d="M1124.65,50.37c-12.01-8.91-33.32-24.02-60.05-24.02-41.84,0-49.2,30.99-49.2,40.68,0,26.73,26.73,40.29,49.98,51.91,51.53,25.57,70.12,40.68,70.12,79.81,0,49.98-42.61,72.44-77.1,72.44-24.79,0-48.81-9.68-69.35-24.02v-35.64c13.95,13.95,39.13,33.32,68.58,33.32,37.19,0,49.2-28.28,49.2-44.16,0-16.66-5.04-32.54-59.27-58.11-44.55-20.92-60.82-43-60.82-72.44,0-41.45,34.09-70.13,78.26-70.13,29.44,0,49.2,11.24,59.66,17.44v32.93Z"/>
      <path class="cls-1" d="M1424.51,267.7h-29.06V47.65l-91.04,112.74h-3.1l-91.43-112.74v220.05h-29.06V3.49h27.89l94.14,115.83L1396.62,3.49h27.89v264.21Z"/>
      <path class="cls-1" d="M1517.48,267.7h-29.06V3.49h29.06v264.21Z"/>
      <path class="cls-1" d="M1610.85,242.14h124.75v25.57h-153.8V3.49h29.06v238.65Z"/>
      <path class="cls-1" d="M1916.9,29.06h-118.16v92.59h114.67v25.57h-114.67v94.92h121.26v25.57h-150.32V3.49h147.22v25.57Z"/>
    </g>
  </g>
</svg>