<?xml version="1.0" encoding="UTF-8"?>
<svg id="Capa_2" data-name="Capa 2" xmlns="http://www.w3.org/2000/svg" xmlns:xlink="http://www.w3.org/1999/xlink" viewBox="0 0 587.26 312.66">
  <defs>
    <style>
      .cls-1 {
        fill: #275255;
      }

      .cls-2 {
        fill: none;
      }

      .cls-3 {
        fill: url(#Motivo_nuevo);
      }
    </style>
    <pattern id="Motivo_nuevo" data-name="Motivo nuevo" x="0" y="0" width="510.24" height="470.69" patternTransform="translate(-1543.97 -1119.44)" patternUnits="userSpaceOnUse" viewBox="0 0 510.24 470.69">
      <g>
        <rect class="cls-2" y="0" width="510.24" height="470.69"/>
        <g>
          <path class="cls-1" d="M573.96,412.9l-34.94,35.05c-15.91,15.99-41.87,16.04-57.87.12l-35.05-34.94c-.42-.42-.76-.9-1.02-1.42-.57-.31-1.13-.73-1.62-1.23l-50.57-50.37c-3.3-3.3-5.1-7.64-5.1-12.23,0-4.63,1.79-8.99,5.04-12.28l50.38-50.57c.67-.67,1.44-1.2,2.26-1.54.36-.83.88-1.6,1.56-2.27l33.73-33.85c15.91-15.99,41.87-16.04,57.87-.12l33.85,33.73c.68.68,1.22,1.46,1.56,2.27.87.37,1.64.89,2.31,1.56l50.76,50.57c3.23,3.27,5.01,7.55,5.01,12.06,0,4.57-1.77,8.86-4.99,12.08l-50.57,50.76c-.47.47-.99.86-1.59,1.22-.24.51-.58,1-1,1.41ZM564.76,408.5l-33.18-51.84c-.88-1.25-1.89-2.45-3.13-3.69-4.45-4.45-10.08-7.44-16.3-8.66-8.58-1.69-17.24.14-24.41,5.13-4.4,3.09-7.94,7.25-10.23,12.03l-2.11,4.39-20.51,42.46,33.05,32.93c12.24,12.16,32.1,12.12,44.28-.09l32.54-32.65ZM490.27,337.16c-2.9-.21-5.77-.72-8.56-1.53-2.43-.72-4.79-1.65-7.03-2.77l.53,1.22c1.47,3.41,2.45,7.02,2.94,10.74,1.27-1.15,2.63-2.23,4.11-3.28,2.56-1.78,5.24-3.24,8.02-4.38ZM520.45,327.23l-4.23,2.88c-2.39,1.63-4.89,2.99-7.47,4.06,1.75.11,3.5.35,5.26.7,2.43.49,4.76,1.16,6.94,1.99-.72-3.14-.89-6.42-.5-9.64ZM510.79,322.16l53-36.23-31.98-31.87c-12.21-12.17-32.06-12.13-44.24.09l-32.56,32.68,9.35,21.82c3.68,8.66,10.98,15.12,20.02,17.74,9.04,2.64,18.66,1.1,26.42-4.23ZM447.62,294.25l-47.97,48.12c-1.45,1.45-2.25,3.39-2.25,5.47,0,2.05.81,3.98,2.27,5.45l48.29,48.1,17.9-37.74c.28-.58.54-1.17.76-1.76,3.11-7.66,3.02-16.42-.26-24.04l-18.74-43.6ZM620.31,352.72c1.43-1.43,2.17-3.25,2.16-5.25,0-2.01-.77-3.87-2.16-5.26l-49.46-49.27-32.78,22.29c-8.42,5.73-10.71,16.96-5.21,25.55l38.84,60.74,48.61-48.8Z"/>
          <path class="cls-1" d="M452.92,405.85l35.05,34.94c15.99,15.91,16.04,41.87.12,57.87l-34.94,35.05c-.42.42-.9.76-1.42,1.02-.31.57-.73,1.13-1.23,1.62l-50.37,50.57c-3.3,3.3-7.64,5.1-12.23,5.1-4.63,0-8.99-1.79-12.28-5.04l-50.57-50.38c-.67-.67-1.2-1.44-1.54-2.26-.83-.36-1.6-.88-2.27-1.56l-33.85-33.73c-15.99-15.91-16.04-41.87-.12-57.87l33.73-33.85c.68-.68,1.46-1.22,2.27-1.56.37-.87.89-1.64,1.56-2.31l50.57-50.76c3.27-3.23,7.55-5.01,12.06-5.01,4.57,0,8.86,1.77,12.08,4.99l50.76,50.57c.47.47.86.99,1.22,1.59.51.24,1,.58,1.41,1ZM448.52,415.05l-51.84,33.18c-1.25.88-2.45,1.89-3.69,3.13-4.45,4.45-7.44,10.08-8.66,16.3-1.69,8.58.14,17.24,5.13,24.41,3.09,4.4,7.25,7.94,12.03,10.23l4.39,2.11,42.46,20.51,32.93-33.05c12.16-12.24,12.12-32.1-.09-44.28l-32.65-32.54ZM377.18,489.55c-.21,2.9-.72,5.77-1.53,8.56-.72,2.43-1.65,4.79-2.77,7.03l1.22-.53c3.41-1.47,7.02-2.45,10.74-2.94-1.15-1.27-2.23-2.63-3.28-4.11-1.78-2.56-3.24-5.24-4.38-8.02ZM367.24,459.37l2.88,4.23c1.63,2.39,2.99,4.89,4.06,7.47.11-1.75.35-3.5.7-5.26.49-2.43,1.16-4.76,1.99-6.94-3.14.72-6.42.89-9.64.5ZM362.17,469.02l-36.23-53-31.87,31.98c-12.17,12.21-12.13,32.06.09,44.24l32.68,32.56,21.82-9.35c8.66-3.68,15.12-10.98,17.74-20.02,2.64-9.04,1.1-18.66-4.23-26.42ZM334.27,532.19l48.12,47.97c1.45,1.45,3.39,2.25,5.47,2.25,2.05,0,3.98-.81,5.45-2.27l48.1-48.29-37.74-17.9c-.58-.28-1.17-.54-1.76-.76-7.66-3.11-16.42-3.02-24.04.26l-43.6,18.74ZM392.74,359.5c-1.43-1.43-3.25-2.17-5.25-2.16-2.01,0-3.87.77-5.26,2.16l-49.27,49.46,22.29,32.78c5.73,8.42,16.96,10.71,25.55,5.21l60.74-38.84-48.8-48.61Z"/>
        </g>
        <g>
          <path class="cls-1" d="M63.72,412.9l-34.94,35.05c-15.91,15.99-41.87,16.04-57.87.12l-35.05-34.94c-.42-.42-.76-.9-1.02-1.42-.57-.31-1.13-.73-1.62-1.23l-50.57-50.37c-3.3-3.3-5.1-7.64-5.1-12.23,0-4.63,1.79-8.99,5.04-12.28l50.38-50.57c.67-.67,1.44-1.2,2.26-1.54.36-.83.88-1.6,1.56-2.27l33.73-33.85c15.91-15.99,41.87-16.04,57.87-.12l33.85,33.73c.68.68,1.22,1.46,1.56,2.27.87.37,1.64.89,2.31,1.56l50.76,50.57c3.23,3.27,5.01,7.55,5.01,12.06,0,4.57-1.77,8.86-4.99,12.08l-50.57,50.76c-.47.47-.99.86-1.59,1.22-.24.51-.58,1-1,1.41ZM54.52,408.5l-33.18-51.84c-.88-1.25-1.89-2.45-3.13-3.69-4.45-4.45-10.08-7.44-16.3-8.66-8.58-1.69-17.24.14-24.41,5.13-4.4,3.09-7.94,7.25-10.23,12.03l-2.11,4.39-20.51,42.46,33.05,32.93c12.24,12.16,32.1,12.12,44.28-.09l32.54-32.65ZM-19.97,337.16c-2.9-.21-5.77-.72-8.56-1.53-2.43-.72-4.79-1.65-7.03-2.77l.53,1.22c1.47,3.41,2.45,7.02,2.94,10.74,1.27-1.15,2.63-2.23,4.11-3.28,2.56-1.78,5.24-3.24,8.02-4.38ZM10.21,327.23l-4.23,2.88c-2.39,1.63-4.89,2.99-7.47,4.06,1.75.11,3.5.35,5.26.7,2.43.49,4.76,1.16,6.94,1.99-.72-3.14-.89-6.42-.5-9.64ZM.56,322.16l53-36.23-31.98-31.87c-12.21-12.17-32.06-12.13-44.24.09l-32.56,32.68,9.35,21.82c3.68,8.66,10.98,15.12,20.02,17.74,9.04,2.64,18.66,1.1,26.42-4.23ZM-62.61,294.25l-47.97,48.12c-1.45,1.45-2.25,3.39-2.25,5.47,0,2.05.81,3.98,2.27,5.45l48.29,48.1,17.9-37.74c.28-.58.54-1.17.76-1.76,3.11-7.66,3.02-16.42-.26-24.04l-18.74-43.6ZM110.07,352.72c1.43-1.43,2.17-3.25,2.16-5.25,0-2.01-.77-3.87-2.16-5.26l-49.46-49.27-32.78,22.29c-8.42,5.73-10.71,16.96-5.21,25.55l38.84,60.74,48.61-48.8Z"/>
          <path class="cls-1" d="M57.32,534.62l-35.05-34.94c-15.99-15.91-16.04-41.87-.12-57.87l34.94-35.05c.42-.42.9-.76,1.42-1.02.31-.57.73-1.13,1.23-1.62l50.37-50.57c3.3-3.3,7.64-5.1,12.23-5.1,4.63,0,8.99,1.79,12.28,5.04l50.57,50.38c.67.67,1.2,1.44,1.54,2.26.83.36,1.6.88,2.27,1.56l33.85,33.73c15.99,15.91,16.04,41.87.12,57.87l-33.73,33.85c-.68.68-1.46,1.22-2.27,1.56-.37.87-.89,1.64-1.56,2.31l-50.57,50.76c-3.27,3.23-7.55,5.01-12.06,5.01-4.57,0-8.86-1.77-12.08-4.99l-50.76-50.57c-.47-.47-.86-.99-1.22-1.59-.51-.24-1-.58-1.41-1ZM61.72,525.42l51.84-33.18c1.25-.88,2.45-1.89,3.69-3.13,4.45-4.45,7.44-10.08,8.66-16.3,1.69-8.58-.14-17.24-5.13-24.41-3.09-4.4-7.25-7.94-12.03-10.23l-4.39-2.11-42.46-20.51-32.93,33.05c-12.16,12.24-12.12,32.1.09,44.28l32.65,32.54ZM133.06,450.93c.21-2.9.72-5.77,1.53-8.56.72-2.43,1.65-4.79,2.77-7.03l-1.22.53c-3.41,1.47-7.02,2.45-10.74,2.94,1.15,1.27,2.23,2.63,3.28,4.11,1.78,2.56,3.24,5.24,4.38,8.02ZM142.99,481.11l-2.88-4.23c-1.63-2.39-2.99-4.89-4.06-7.47-.11,1.75-.35,3.5-.7,5.26-.49,2.43-1.16,4.76-1.99,6.94,3.14-.72,6.42-.89,9.64-.5ZM148.06,471.46l36.23,53,31.87-31.98c12.17-12.21,12.13-32.06-.09-44.24l-32.68-32.56-21.82,9.35c-8.66,3.68-15.12,10.98-17.74,20.02-2.64,9.04-1.1,18.66,4.23,26.42ZM175.96,408.29l-48.12-47.97c-1.45-1.45-3.39-2.25-5.47-2.25-2.05,0-3.98.81-5.45,2.27l-48.1,48.29,37.74,17.9c.58.28,1.17.54,1.76.76,7.66,3.11,16.42,3.02,24.04-.26l43.6-18.74ZM117.5,580.97c1.43,1.43,3.25,2.17,5.25,2.16,2.01,0,3.87-.77,5.26-2.16l49.27-49.46-22.29-32.78c-5.73-8.42-16.96-10.71-25.55-5.21l-60.74,38.84,48.8,48.61Z"/>
        </g>
        <g>
          <path class="cls-1" d="M445.61,57.79l34.94-35.05c15.91-15.99,41.87-16.04,57.87-.12l35.05,34.94c.42.42.76.9,1.02,1.42.57.31,1.13.73,1.62,1.23l50.57,50.37c3.3,3.3,5.1,7.64,5.1,12.23,0,4.63-1.79,8.99-5.04,12.28l-50.38,50.57c-.67.67-1.44,1.2-2.26,1.54-.36.83-.88,1.6-1.56,2.27l-33.73,33.85c-15.91,15.99-41.87,16.04-57.87.12l-33.85-33.73c-.68-.68-1.22-1.46-1.56-2.27-.87-.37-1.64-.89-2.31-1.56l-50.76-50.57c-3.23-3.27-5.01-7.55-5.01-12.06,0-4.57,1.77-8.86,4.99-12.08l50.57-50.76c.47-.47.99-.86,1.59-1.22.24-.51.58-1,1-1.41ZM454.81,62.19l33.18,51.84c.88,1.25,1.89,2.45,3.13,3.69,4.45,4.45,10.08,7.44,16.3,8.66,8.58,1.69,17.24-.14,24.41-5.13,4.4-3.09,7.94-7.25,10.23-12.03l2.11-4.39,20.51-42.46-33.05-32.93c-12.24-12.16-32.1-12.12-44.28.09l-32.54,32.65ZM529.3,133.53c2.9.21,5.77.72,8.56,1.53,2.43.72,4.79,1.65,7.03,2.77l-.53-1.22c-1.47-3.41-2.45-7.02-2.94-10.74-1.27,1.15-2.63,2.23-4.11,3.28-2.56,1.78-5.24,3.24-8.02,4.38ZM499.12,143.46l4.23-2.88c2.39-1.63,4.89-2.99,7.47-4.06-1.75-.11-3.5-.35-5.26-.7-2.43-.49-4.76-1.16-6.94-1.99.72,3.14.89,6.42.5,9.64ZM508.77,148.53l-53,36.23,31.98,31.87c12.21,12.17,32.06,12.13,44.24-.09l32.56-32.68-9.35-21.82c-3.68-8.66-10.98-15.12-20.02-17.74-9.04-2.64-18.66-1.1-26.42,4.23ZM571.94,176.43l47.97-48.12c1.45-1.45,2.25-3.39,2.25-5.47,0-2.05-.81-3.98-2.27-5.45l-48.29-48.1-17.9,37.74c-.28.58-.54,1.17-.76,1.76-3.11,7.66-3.02,16.42.26,24.04l18.74,43.6ZM399.26,117.97c-1.43,1.43-2.17,3.25-2.16,5.25,0,2.01.77,3.87,2.16,5.26l49.46,49.27,32.78-22.29c8.42-5.73,10.71-16.96,5.21-25.55l-38.84-60.74-48.61,48.8Z"/>
          <path class="cls-1" d="M452.92-64.84l35.05,34.94c15.99,15.91,16.04,41.87.12,57.87l-34.94,35.05c-.42.42-.9.76-1.42,1.02-.31.57-.73,1.13-1.23,1.62l-50.37,50.57c-3.3,3.3-7.64,5.1-12.23,5.1-4.63,0-8.99-1.79-12.28-5.04l-50.57-50.38c-.67-.67-1.2-1.44-1.54-2.26-.83-.36-1.6-.88-2.27-1.56l-33.85-33.73c-15.99-15.91-16.04-41.87-.12-57.87l33.73-33.85c.68-.68,1.46-1.22,2.27-1.56.37-.87.89-1.64,1.56-2.31l50.57-50.76c3.27-3.23,7.55-5.01,12.06-5.01,4.57,0,8.86,1.77,12.08,4.99l50.76,50.57c.47.47.86.99,1.22,1.59.51.24,1,.58,1.41,1ZM448.52-55.64l-51.84,33.18c-1.25.88-2.45,1.89-3.69,3.13-4.45,4.45-7.44,10.08-8.66,16.3-1.69,8.58.14,17.24,5.13,24.41,3.09,4.4,7.25,7.94,12.03,10.23l4.39,2.11,42.46,20.51,32.93-33.05c12.16-12.24,12.12-32.1-.09-44.28l-32.65-32.54ZM377.18,18.86c-.21,2.9-.72,5.77-1.53,8.56-.72,2.43-1.65,4.79-2.77,7.03l1.22-.53c3.41-1.47,7.02-2.45,10.74-2.94-1.15-1.27-2.23-2.63-3.28-4.11-1.78-2.56-3.24-5.24-4.38-8.02ZM367.24-11.32l2.88,4.23c1.63,2.39,2.99,4.89,4.06,7.47.11-1.75.35-3.5.7-5.26.49-2.43,1.16-4.76,1.99-6.94-3.14.72-6.42.89-9.64.5ZM362.17-1.67l-36.23-53-31.87,31.98c-12.17,12.21-12.13,32.06.09,44.24l32.68,32.56,21.82-9.35c8.66-3.68,15.12-10.98,17.74-20.02,2.64-9.04,1.1-18.66-4.23-26.42ZM334.27,61.5l48.12,47.97c1.45,1.45,3.39,2.25,5.47,2.25,2.05,0,3.98-.81,5.45-2.27l48.1-48.29-37.74-17.9c-.58-.28-1.17-.54-1.76-.76-7.66-3.11-16.42-3.02-24.04.26l-43.6,18.74ZM392.74-111.19c-1.43-1.43-3.25-2.17-5.25-2.16-2.01,0-3.87.77-5.26,2.16l-49.27,49.46,22.29,32.78c5.73,8.42,16.96,10.71,25.55,5.21l60.74-38.84-48.8-48.61Z"/>
        </g>
        <g>
          <path class="cls-1" d="M318.84,177.56l-34.94,35.05c-15.91,15.99-41.87,16.04-57.87.12l-35.05-34.94c-.42-.42-.76-.9-1.02-1.42-.57-.31-1.13-.73-1.62-1.23l-50.57-50.37c-3.3-3.3-5.1-7.64-5.1-12.23,0-4.63,1.79-8.99,5.04-12.28l50.38-50.57c.67-.67,1.44-1.2,2.26-1.54.36-.83.88-1.6,1.56-2.27l33.73-33.85c15.91-15.99,41.87-16.04,57.87-.12l33.85,33.73c.68.68,1.22,1.46,1.56,2.27.87.37,1.64.89,2.31,1.56l50.76,50.57c3.23,3.27,5.01,7.55,5.01,12.06,0,4.57-1.77,8.86-4.99,12.08l-50.57,50.76c-.47.47-.99.86-1.59,1.22-.24.51-.58,1-1,1.41ZM309.64,173.15l-33.18-51.84c-.88-1.25-1.89-2.45-3.13-3.69-4.45-4.45-10.08-7.44-16.3-8.66-8.58-1.69-17.24.14-24.41,5.13-4.4,3.09-7.94,7.25-10.23,12.03l-2.11,4.39-20.51,42.46,33.05,32.93c12.24,12.16,32.1,12.12,44.28-.09l32.54-32.65ZM235.15,101.81c-2.9-.21-5.77-.72-8.56-1.53-2.43-.72-4.79-1.65-7.03-2.77l.53,1.22c1.47,3.41,2.45,7.02,2.94,10.74,1.27-1.15,2.63-2.23,4.11-3.28,2.56-1.78,5.24-3.24,8.02-4.38ZM265.33,91.88l-4.23,2.88c-2.39,1.63-4.89,2.99-7.47,4.06,1.75.11,3.5.35,5.26.7,2.43.49,4.76,1.16,6.94,1.99-.72-3.14-.89-6.42-.5-9.64ZM255.68,86.81l53-36.23-31.98-31.87c-12.21-12.17-32.06-12.13-44.24.09l-32.56,32.68,9.35,21.82c3.68,8.66,10.98,15.12,20.02,17.74,9.04,2.64,18.66,1.1,26.42-4.23ZM192.51,58.91l-47.97,48.12c-1.45,1.45-2.25,3.39-2.25,5.47,0,2.05.81,3.98,2.27,5.45l48.29,48.1,17.9-37.74c.28-.58.54-1.17.76-1.76,3.11-7.66,3.02-16.42-.26-24.04l-18.74-43.6ZM365.19,117.37c1.43-1.43,2.17-3.25,2.16-5.25,0-2.01-.77-3.87-2.16-5.26l-49.46-49.27-32.78,22.29c-8.42,5.73-10.71,16.96-5.21,25.55l38.84,60.74,48.61-48.8Z"/>
          <path class="cls-1" d="M312.44,299.28l-35.05-34.94c-15.99-15.91-16.04-41.87-.12-57.87l34.94-35.05c.42-.42.9-.76,1.42-1.02.31-.57.73-1.13,1.23-1.62l50.37-50.57c3.3-3.3,7.64-5.1,12.23-5.1,4.63,0,8.99,1.79,12.28,5.04l50.57,50.38c.67.67,1.2,1.44,1.54,2.26.83.36,1.6.88,2.27,1.56l33.85,33.73c15.99,15.91,16.04,41.87.12,57.87l-33.73,33.85c-.68.68-1.46,1.22-2.27,1.56-.37.87-.89,1.64-1.56,2.31l-50.57,50.76c-3.27,3.23-7.55,5.01-12.06,5.01-4.57,0-8.86-1.77-12.08-4.99l-50.76-50.57c-.47-.47-.86-.99-1.22-1.59-.51-.24-1-.58-1.41-1ZM316.84,290.08l51.84-33.18c1.25-.88,2.45-1.89,3.69-3.13,4.45-4.45,7.44-10.08,8.66-16.3,1.69-8.58-.14-17.24-5.13-24.41-3.09-4.4-7.25-7.94-12.03-10.23l-4.39-2.11-42.46-20.51-32.93,33.05c-12.16,12.24-12.12,32.1.09,44.28l32.65,32.54ZM388.18,215.58c.21-2.9.72-5.77,1.53-8.56.72-2.43,1.65-4.79,2.77-7.03l-1.22.53c-3.41,1.47-7.02,2.45-10.74,2.94,1.15,1.27,2.23,2.63,3.28,4.11,1.78,2.56,3.24,5.24,4.38,8.02ZM398.11,245.76l-2.88-4.23c-1.63-2.39-2.99-4.89-4.06-7.47-.11,1.75-.35,3.5-.7,5.26-.49,2.43-1.16,4.76-1.99,6.94,3.14-.72,6.42-.89,9.64-.5ZM403.18,236.11l36.23,53,31.87-31.98c12.17-12.21,12.13-32.06-.09-44.24l-32.68-32.56-21.82,9.35c-8.66,3.68-15.12,10.98-17.74,20.02-2.64,9.04-1.1,18.66,4.23,26.42ZM431.08,172.94l-48.12-47.97c-1.45-1.45-3.39-2.25-5.47-2.25-2.05,0-3.98.81-5.45,2.27l-48.1,48.29,37.74,17.9c.58.28,1.17.54,1.76.76,7.66,3.11,16.42,3.02,24.04-.26l43.6-18.74ZM372.62,345.63c1.43,1.43,3.25,2.17,5.25,2.16,2.01,0,3.87-.77,5.26-2.16l49.27-49.46-22.29-32.78c-5.73-8.42-16.96-10.71-25.55-5.21l-60.74,38.84,48.8,48.61Z"/>
          <path class="cls-1" d="M190.49,293.13l34.94-35.05c15.91-15.99,41.87-16.04,57.87-.12l35.05,34.94c.42.42.76.9,1.02,1.42.57.31,1.13.73,1.62,1.23l50.57,50.37c3.3,3.3,5.1,7.64,5.1,12.23,0,4.63-1.79,8.99-5.04,12.28l-50.38,50.57c-.67.67-1.44,1.2-2.26,1.54-.36.83-.88,1.6-1.56,2.27l-33.73,33.85c-15.91,15.99-41.87,16.04-57.87.12l-33.85-33.73c-.68-.68-1.22-1.46-1.56-2.27-.87-.37-1.64-.89-2.31-1.56l-50.76-50.57c-3.23-3.27-5.01-7.55-5.01-12.06,0-4.57,1.77-8.86,4.99-12.08l50.57-50.76c.47-.47.99-.86,1.59-1.22.24-.51.58-1,1-1.41ZM199.69,297.54l33.18,51.84c.88,1.25,1.89,2.45,3.13,3.69,4.45,4.45,10.08,7.44,16.3,8.66,8.58,1.69,17.24-.14,24.41-5.13,4.4-3.09,7.94-7.25,10.23-12.03l2.11-4.39,20.51-42.46-33.05-32.93c-12.24-12.16-32.1-12.12-44.28.09l-32.54,32.65ZM274.18,368.88c2.9.21,5.77.72,8.56,1.53,2.43.72,4.79,1.65,7.03,2.77l-.53-1.22c-1.47-3.41-2.45-7.02-2.94-10.74-1.27,1.15-2.63,2.23-4.11,3.28-2.56,1.78-5.24,3.24-8.02,4.38ZM244,378.81l4.23-2.88c2.39-1.63,4.89-2.99,7.47-4.06-1.75-.11-3.5-.35-5.26-.7-2.43-.49-4.76-1.16-6.94-1.99.72,3.14.89,6.42.5,9.64ZM253.66,383.88l-53,36.23,31.98,31.87c12.21,12.17,32.06,12.13,44.24-.09l32.56-32.68-9.35-21.82c-3.68-8.66-10.98-15.12-20.02-17.74-9.04-2.64-18.66-1.1-26.42,4.23ZM316.83,411.78l47.97-48.12c1.45-1.45,2.25-3.39,2.25-5.47,0-2.05-.81-3.98-2.27-5.45l-48.29-48.1-17.9,37.74c-.28.58-.54,1.17-.76,1.76-3.11,7.66-3.02,16.42.26,24.04l18.74,43.6ZM144.14,353.32c-1.43,1.43-2.17,3.25-2.16,5.25,0,2.01.77,3.87,2.16,5.26l49.46,49.27,32.78-22.29c8.42-5.73,10.71-16.96,5.21-25.55l-38.84-60.74-48.61,48.8Z"/>
          <path class="cls-1" d="M197.8,170.51l35.05,34.94c15.99,15.91,16.04,41.87.12,57.87l-34.94,35.05c-.42.42-.9.76-1.42,1.02-.31.57-.73,1.13-1.23,1.62l-50.37,50.57c-3.3,3.3-7.64,5.1-12.23,5.1-4.63,0-8.99-1.79-12.28-5.04l-50.57-50.38c-.67-.67-1.2-1.44-1.54-2.26-.83-.36-1.6-.88-2.27-1.56l-33.85-33.73c-15.99-15.91-16.04-41.87-.12-57.87l33.73-33.85c.68-.68,1.46-1.22,2.27-1.56.37-.87.89-1.64,1.56-2.31l50.57-50.76c3.27-3.23,7.55-5.01,12.06-5.01,4.57,0,8.86,1.77,12.08,4.99l50.76,50.57c.47.47.86.99,1.22,1.59.51.24,1,.58,1.41,1ZM193.4,179.71l-51.84,33.18c-1.25.88-2.45,1.89-3.69,3.13-4.45,4.45-7.44,10.08-8.66,16.3-1.69,8.58.14,17.24,5.13,24.41,3.09,4.4,7.25,7.94,12.03,10.23l4.39,2.11,42.46,20.51,32.93-33.05c12.16-12.24,12.12-32.1-.09-44.28l-32.65-32.54ZM122.06,254.2c-.21,2.9-.72,5.77-1.53,8.56-.72,2.43-1.65,4.79-2.77,7.03l1.22-.53c3.41-1.47,7.02-2.45,10.74-2.94-1.15-1.27-2.23-2.63-3.28-4.11-1.78-2.56-3.24-5.24-4.38-8.02ZM112.13,224.02l2.88,4.23c1.63,2.39,2.99,4.89,4.06,7.47.11-1.75.35-3.5.7-5.26.49-2.43,1.16-4.76,1.99-6.94-3.14.72-6.42.89-9.64.5ZM107.05,233.67l-36.23-53-31.87,31.98c-12.17,12.21-12.13,32.06.09,44.24l32.68,32.56,21.82-9.35c8.66-3.68,15.12-10.98,17.74-20.02,2.64-9.04,1.1-18.66-4.23-26.42ZM79.15,296.84l48.12,47.97c1.45,1.45,3.39,2.25,5.47,2.25,2.05,0,3.98-.81,5.45-2.27l48.1-48.29-37.74-17.9c-.58-.28-1.17-.54-1.76-.76-7.66-3.11-16.42-3.02-24.04.26l-43.6,18.74ZM137.62,124.16c-1.43-1.43-3.25-2.17-5.25-2.16-2.01,0-3.87.77-5.26,2.16l-49.27,49.46,22.29,32.78c5.73,8.42,16.96,10.71,25.55,5.21l60.74-38.84-48.8-48.61Z"/>
        </g>
        <g>
          <path class="cls-1" d="M57.32,63.93L22.27,28.99c-15.99-15.91-16.04-41.87-.12-57.87l34.94-35.05c.42-.42.9-.76,1.42-1.02.31-.57.73-1.13,1.23-1.62l50.37-50.57c3.3-3.3,7.64-5.1,12.23-5.1,4.63,0,8.99,1.79,12.28,5.04l50.57,50.38c.67.67,1.2,1.44,1.54,2.26.83.36,1.6.88,2.27,1.56l33.85,33.73c15.99,15.91,16.04,41.87.12,57.87l-33.73,33.85c-.68.68-1.46,1.22-2.27,1.56-.37.87-.89,1.64-1.56,2.31l-50.57,50.76c-3.27,3.23-7.55,5.01-12.06,5.01-4.57,0-8.86-1.77-12.08-4.99l-50.76-50.57c-.47-.47-.86-.99-1.22-1.59-.51-.24-1-.58-1.41-1ZM61.72,54.73l51.84-33.18c1.25-.88,2.45-1.89,3.69-3.13,4.45-4.45,7.44-10.08,8.66-16.3,1.69-8.58-.14-17.24-5.13-24.41-3.09-4.4-7.25-7.94-12.03-10.23l-4.39-2.11-42.46-20.51L28.97-22.09c-12.16,12.24-12.12,32.1.09,44.28l32.65,32.54ZM133.06-19.76c.21-2.9.72-5.77,1.53-8.56.72-2.43,1.65-4.79,2.77-7.03l-1.22.53c-3.41,1.47-7.02,2.45-10.74,2.94,1.15,1.27,2.23,2.63,3.28,4.11,1.78,2.56,3.24,5.24,4.38,8.02ZM142.99,10.42l-2.88-4.23c-1.63-2.39-2.99-4.89-4.06-7.47-.11,1.75-.35,3.5-.7,5.26-.49,2.43-1.16,4.76-1.99,6.94,3.14-.72,6.42-.89,9.64-.5ZM148.06.77l36.23,53,31.87-31.98c12.17-12.21,12.13-32.06-.09-44.24l-32.68-32.56-21.82,9.35c-8.66,3.68-15.12,10.98-17.74,20.02-2.64,9.04-1.1,18.66,4.23,26.42ZM175.96-62.4l-48.12-47.97c-1.45-1.45-3.39-2.25-5.47-2.25-2.05,0-3.98.81-5.45,2.27l-48.1,48.29,37.74,17.9c.58.28,1.17.54,1.76.76,7.66,3.11,16.42,3.02,24.04-.26l43.6-18.74ZM117.5,110.28c1.43,1.43,3.25,2.17,5.25,2.16,2.01,0,3.87-.77,5.26-2.16l49.27-49.46-22.29-32.78c-5.73-8.42-16.96-10.71-25.55-5.21l-60.74,38.84,48.8,48.61Z"/>
          <path class="cls-1" d="M-64.63,57.79L-29.69,22.74c15.91-15.99,41.87-16.04,57.87-.12l35.05,34.94c.42.42.76.9,1.02,1.42.57.31,1.13.73,1.62,1.23l50.57,50.37c3.3,3.3,5.1,7.64,5.1,12.23,0,4.63-1.79,8.99-5.04,12.28l-50.38,50.57c-.67.67-1.44,1.2-2.26,1.54-.36.83-.88,1.6-1.56,2.27l-33.73,33.85c-15.91,15.99-41.87,16.04-57.87.12l-33.85-33.73c-.68-.68-1.22-1.46-1.56-2.27-.87-.37-1.64-.89-2.31-1.56l-50.76-50.57c-3.23-3.27-5.01-7.55-5.01-12.06,0-4.57,1.77-8.86,4.99-12.08l50.57-50.76c.47-.47.99-.86,1.59-1.22.24-.51.58-1,1-1.41ZM-55.43,62.19l33.18,51.84c.88,1.25,1.89,2.45,3.13,3.69,4.45,4.45,10.08,7.44,16.3,8.66,8.58,1.69,17.24-.14,24.41-5.13,4.4-3.09,7.94-7.25,10.23-12.03l2.11-4.39,20.51-42.46L21.4,29.44c-12.24-12.16-32.1-12.12-44.28.09l-32.54,32.65ZM19.07,133.53c2.9.21,5.77.72,8.56,1.53,2.43.72,4.79,1.65,7.03,2.77l-.53-1.22c-1.47-3.41-2.45-7.02-2.94-10.74-1.27,1.15-2.63,2.23-4.11,3.28-2.56,1.78-5.24,3.24-8.02,4.38ZM-11.11,143.46l4.23-2.88c2.39-1.63,4.89-2.99,7.47-4.06-1.75-.11-3.5-.35-5.26-.7-2.43-.49-4.76-1.16-6.94-1.99.72,3.14.89,6.42.5,9.64ZM-1.46,148.53l-53,36.23,31.98,31.87c12.21,12.17,32.06,12.13,44.24-.09l32.56-32.68-9.35-21.82c-3.68-8.66-10.98-15.12-20.02-17.74-9.04-2.64-18.66-1.1-26.42,4.23ZM61.71,176.43l47.97-48.12c1.45-1.45,2.25-3.39,2.25-5.47,0-2.05-.81-3.98-2.27-5.45l-48.29-48.1-17.9,37.74c-.28.58-.54,1.17-.76,1.76-3.11,7.66-3.02,16.42.26,24.04l18.74,43.6ZM-110.98,117.97c-1.43,1.43-2.17,3.25-2.16,5.25,0,2.01.77,3.87,2.16,5.26l49.46,49.27,32.78-22.29c8.42-5.73,10.71-16.96,5.21-25.55l-38.84-60.74-48.61,48.8Z"/>
        </g>
      </g>
    </pattern>
  </defs>
  <g id="Capa_1-2" data-name="Capa 1">
    <rect class="cls-3" width="587.26" height="312.66"/>
  </g>
</svg>